<svg width="80" height="80" viewBox="0 0 80 80" fill="none" xmlns="http://www.w3.org/2000/svg">
<rect width="80" height="80" rx="8" fill="#FCF5FC"/>
<path d="M39.5113 33.2616C37.4628 30.7791 37.8147 27.106 40.2973 25.0576L40.5499 24.8491C40.962 24.509 41.5718 24.5674 41.9119 24.9796L45.3834 29.1868C47.8871 32.221 47.457 36.7103 44.4228 39.2139L39.5113 33.2616Z" fill="url(#paint0_linear_1841_16333)"/>
<g filter="url(#filter0_i_1841_16333)">
<path d="M36.3635 24.9704L20.2568 38.2607L26.6858 46.0521C28.1744 47.8561 30.3968 48.8933 32.7357 48.8754L36.3635 57.2373L48.0436 47.5996L44.4158 39.2376C45.6381 38.229 45.8114 36.4205 44.8028 35.1981L36.3635 24.9704Z" fill="url(#paint1_linear_1841_16333)"/>
</g>
<g filter="url(#filter1_i_1841_16333)">
<path d="M17.3297 34.7134C14.8498 31.7079 15.2758 27.2611 18.2813 24.7811L25.6989 33.7706L20.257 38.261L17.3297 34.7134Z" fill="url(#paint2_linear_1841_16333)"/>
</g>
<g filter="url(#filter2_i_1841_16333)">
<path d="M17.8262 24.6751C16.5863 23.1723 16.7993 20.9489 18.302 19.7089C19.8047 18.4689 22.0282 18.682 23.2681 20.1847L30.9217 29.4601L25.4798 33.9505L17.8262 24.6751Z" fill="url(#paint3_linear_1841_16333)"/>
</g>
<path d="M22.8682 19.6992C25.8736 17.2193 30.3205 17.6453 32.8004 20.6508L36.3641 24.9696L30.9222 29.4599L22.8682 19.6992Z" fill="url(#paint4_linear_1841_16333)"/>
<rect x="29.2061" y="51.8242" width="27.645" height="15.0269" rx="2" transform="rotate(-22.3945 29.2061 51.8242)" fill="url(#paint5_linear_1841_16333)"/>
<g filter="url(#filter3_i_1841_16333)">
<path d="M40.9304 30.3181C39.1971 28.2175 39.4949 25.1095 41.5955 23.3762L41.8929 23.1308C42.6622 22.496 43.8005 22.6051 44.4353 23.3744L47.3732 26.9348C49.8768 29.969 49.4467 34.4583 46.4125 36.962L40.9304 30.3181Z" fill="url(#paint6_linear_1841_16333)"/>
</g>
<g filter="url(#filter4_i_1841_16333)">
<path d="M38.3532 22.7185L22.2466 36.0088L28.6756 43.8001C30.1642 45.6042 32.3865 46.6413 34.7254 46.6235L41.3544 54.6573L53.0346 45.0195L46.4055 36.9857C46.4055 34.6271 45.6349 32.333 44.2109 30.4528L38.3532 22.7185Z" fill="url(#paint7_linear_1841_16333)"/>
</g>
<g filter="url(#filter5_i_1841_16333)">
<path d="M19.3185 32.4595C16.8385 29.454 17.2645 25.0072 20.27 22.5272L27.6877 31.5167L22.2458 36.0071L19.3185 32.4595Z" fill="url(#paint8_linear_1841_16333)"/>
</g>
<g filter="url(#filter6_i_1841_16333)">
<path d="M19.8145 22.4231C18.5745 20.9204 18.7875 18.6969 20.2903 17.457C21.793 16.217 24.0164 16.43 25.2564 17.9327L32.91 27.2081L27.468 31.6985L19.8145 22.4231Z" fill="url(#paint9_linear_1841_16333)"/>
</g>
<g filter="url(#filter7_i_1841_16333)">
<path d="M25.2324 17.9014C28.2379 15.4214 32.6847 15.8474 35.1647 18.8529L38.3531 22.717L32.9112 27.2073L25.2324 17.9014Z" fill="url(#paint10_linear_1841_16333)"/>
</g>
<g filter="url(#filter8_i_1841_16333)">
<rect x="31.8091" y="52.9121" width="27.645" height="16.6069" rx="2" transform="rotate(-39.5275 31.8091 52.9121)" fill="url(#paint11_linear_1841_16333)"/>
</g>
<g filter="url(#filter9_i_1841_16333)">
<path d="M40.2228 20.5301C42.5905 17.7233 48.9789 13.6688 51.8676 17.1387C55.7341 21.7832 55.6756 29.3694 51.8676 38.5641C47.4629 49.1996 38.0905 60.1439 30.1057 62.3326C22.121 64.5213 21.6268 54.0064 23.9858 48.5831" stroke="url(#paint12_linear_1841_16333)" stroke-width="3" stroke-linecap="round" stroke-dasharray="1 6"/>
</g>
<defs>
<filter id="filter0_i_1841_16333" x="20.2568" y="24.9707" width="27.7866" height="34.2666" filterUnits="userSpaceOnUse" color-interpolation-filters="sRGB">
<feFlood flood-opacity="0" result="BackgroundImageFix"/>
<feBlend mode="normal" in="SourceGraphic" in2="BackgroundImageFix" result="shape"/>
<feColorMatrix in="SourceAlpha" type="matrix" values="0 0 0 0 0 0 0 0 0 0 0 0 0 0 0 0 0 0 127 0" result="hardAlpha"/>
<feOffset dy="2"/>
<feGaussianBlur stdDeviation="2"/>
<feComposite in2="hardAlpha" operator="arithmetic" k2="-1" k3="1"/>
<feColorMatrix type="matrix" values="0 0 0 0 1 0 0 0 0 1 0 0 0 0 1 0 0 0 0.4 0"/>
<feBlend mode="normal" in2="shape" result="effect1_innerShadow_1841_16333"/>
</filter>
<filter id="filter1_i_1841_16333" x="15.7163" y="24.7812" width="9.98242" height="15.4795" filterUnits="userSpaceOnUse" color-interpolation-filters="sRGB">
<feFlood flood-opacity="0" result="BackgroundImageFix"/>
<feBlend mode="normal" in="SourceGraphic" in2="BackgroundImageFix" result="shape"/>
<feColorMatrix in="SourceAlpha" type="matrix" values="0 0 0 0 0 0 0 0 0 0 0 0 0 0 0 0 0 0 127 0" result="hardAlpha"/>
<feOffset dy="2"/>
<feGaussianBlur stdDeviation="2"/>
<feComposite in2="hardAlpha" operator="arithmetic" k2="-1" k3="1"/>
<feColorMatrix type="matrix" values="0 0 0 0 1 0 0 0 0 1 0 0 0 0 1 0 0 0 0.4 0"/>
<feBlend mode="normal" in2="shape" result="effect1_innerShadow_1841_16333"/>
</filter>
<filter id="filter2_i_1841_16333" x="17.0195" y="18.9023" width="13.9023" height="17.0479" filterUnits="userSpaceOnUse" color-interpolation-filters="sRGB">
<feFlood flood-opacity="0" result="BackgroundImageFix"/>
<feBlend mode="normal" in="SourceGraphic" in2="BackgroundImageFix" result="shape"/>
<feColorMatrix in="SourceAlpha" type="matrix" values="0 0 0 0 0 0 0 0 0 0 0 0 0 0 0 0 0 0 127 0" result="hardAlpha"/>
<feOffset dy="2"/>
<feGaussianBlur stdDeviation="2"/>
<feComposite in2="hardAlpha" operator="arithmetic" k2="-1" k3="1"/>
<feColorMatrix type="matrix" values="0 0 0 0 1 0 0 0 0 1 0 0 0 0 1 0 0 0 0.4 0"/>
<feBlend mode="normal" in2="shape" result="effect1_innerShadow_1841_16333"/>
</filter>
<filter id="filter3_i_1841_16333" x="39.8027" y="22.7178" width="9.19922" height="16.2441" filterUnits="userSpaceOnUse" color-interpolation-filters="sRGB">
<feFlood flood-opacity="0" result="BackgroundImageFix"/>
<feBlend mode="normal" in="SourceGraphic" in2="BackgroundImageFix" result="shape"/>
<feColorMatrix in="SourceAlpha" type="matrix" values="0 0 0 0 0 0 0 0 0 0 0 0 0 0 0 0 0 0 127 0" result="hardAlpha"/>
<feOffset dy="2"/>
<feGaussianBlur stdDeviation="2"/>
<feComposite in2="hardAlpha" operator="arithmetic" k2="-1" k3="1"/>
<feColorMatrix type="matrix" values="0 0 0 0 1 0 0 0 0 1 0 0 0 0 1 0 0 0 0.4 0"/>
<feBlend mode="normal" in2="shape" result="effect1_innerShadow_1841_16333"/>
</filter>
<filter id="filter4_i_1841_16333" x="22.2466" y="22.7188" width="30.7881" height="33.9385" filterUnits="userSpaceOnUse" color-interpolation-filters="sRGB">
<feFlood flood-opacity="0" result="BackgroundImageFix"/>
<feBlend mode="normal" in="SourceGraphic" in2="BackgroundImageFix" result="shape"/>
<feColorMatrix in="SourceAlpha" type="matrix" values="0 0 0 0 0 0 0 0 0 0 0 0 0 0 0 0 0 0 127 0" result="hardAlpha"/>
<feOffset dy="2"/>
<feGaussianBlur stdDeviation="2"/>
<feComposite in2="hardAlpha" operator="arithmetic" k2="-1" k3="1"/>
<feColorMatrix type="matrix" values="0 0 0 0 1 0 0 0 0 1 0 0 0 0 1 0 0 0 0.4 0"/>
<feBlend mode="normal" in2="shape" result="effect1_innerShadow_1841_16333"/>
</filter>
<filter id="filter5_i_1841_16333" x="17.7051" y="22.5273" width="9.98242" height="15.4795" filterUnits="userSpaceOnUse" color-interpolation-filters="sRGB">
<feFlood flood-opacity="0" result="BackgroundImageFix"/>
<feBlend mode="normal" in="SourceGraphic" in2="BackgroundImageFix" result="shape"/>
<feColorMatrix in="SourceAlpha" type="matrix" values="0 0 0 0 0 0 0 0 0 0 0 0 0 0 0 0 0 0 127 0" result="hardAlpha"/>
<feOffset dy="2"/>
<feGaussianBlur stdDeviation="2"/>
<feComposite in2="hardAlpha" operator="arithmetic" k2="-1" k3="1"/>
<feColorMatrix type="matrix" values="0 0 0 0 1 0 0 0 0 1 0 0 0 0 1 0 0 0 0.4 0"/>
<feBlend mode="normal" in2="shape" result="effect1_innerShadow_1841_16333"/>
</filter>
<filter id="filter6_i_1841_16333" x="19.0078" y="16.6504" width="13.9023" height="17.0479" filterUnits="userSpaceOnUse" color-interpolation-filters="sRGB">
<feFlood flood-opacity="0" result="BackgroundImageFix"/>
<feBlend mode="normal" in="SourceGraphic" in2="BackgroundImageFix" result="shape"/>
<feColorMatrix in="SourceAlpha" type="matrix" values="0 0 0 0 0 0 0 0 0 0 0 0 0 0 0 0 0 0 127 0" result="hardAlpha"/>
<feOffset dy="2"/>
<feGaussianBlur stdDeviation="2"/>
<feComposite in2="hardAlpha" operator="arithmetic" k2="-1" k3="1"/>
<feColorMatrix type="matrix" values="0 0 0 0 1 0 0 0 0 1 0 0 0 0 1 0 0 0 0.4 0"/>
<feBlend mode="normal" in2="shape" result="effect1_innerShadow_1841_16333"/>
</filter>
<filter id="filter7_i_1841_16333" x="25.2324" y="16.2881" width="13.1206" height="12.9189" filterUnits="userSpaceOnUse" color-interpolation-filters="sRGB">
<feFlood flood-opacity="0" result="BackgroundImageFix"/>
<feBlend mode="normal" in="SourceGraphic" in2="BackgroundImageFix" result="shape"/>
<feColorMatrix in="SourceAlpha" type="matrix" values="0 0 0 0 0 0 0 0 0 0 0 0 0 0 0 0 0 0 127 0" result="hardAlpha"/>
<feOffset dy="2"/>
<feGaussianBlur stdDeviation="2"/>
<feComposite in2="hardAlpha" operator="arithmetic" k2="-1" k3="1"/>
<feColorMatrix type="matrix" values="0 0 0 0 1 0 0 0 0 1 0 0 0 0 1 0 0 0 0.4 0"/>
<feBlend mode="normal" in2="shape" result="effect1_innerShadow_1841_16333"/>
</filter>
<filter id="filter8_i_1841_16333" x="32.6245" y="36.1328" width="30.2617" height="30.7734" filterUnits="userSpaceOnUse" color-interpolation-filters="sRGB">
<feFlood flood-opacity="0" result="BackgroundImageFix"/>
<feBlend mode="normal" in="SourceGraphic" in2="BackgroundImageFix" result="shape"/>
<feColorMatrix in="SourceAlpha" type="matrix" values="0 0 0 0 0 0 0 0 0 0 0 0 0 0 0 0 0 0 127 0" result="hardAlpha"/>
<feOffset dy="2"/>
<feGaussianBlur stdDeviation="2"/>
<feComposite in2="hardAlpha" operator="arithmetic" k2="-1" k3="1"/>
<feColorMatrix type="matrix" values="0 0 0 0 1 0 0 0 0 1 0 0 0 0 1 0 0 0 0.4 0"/>
<feBlend mode="normal" in2="shape" result="effect1_innerShadow_1841_16333"/>
</filter>
<filter id="filter9_i_1841_16333" x="21.249" y="14.8896" width="34.9326" height="50.0547" filterUnits="userSpaceOnUse" color-interpolation-filters="sRGB">
<feFlood flood-opacity="0" result="BackgroundImageFix"/>
<feBlend mode="normal" in="SourceGraphic" in2="BackgroundImageFix" result="shape"/>
<feColorMatrix in="SourceAlpha" type="matrix" values="0 0 0 0 0 0 0 0 0 0 0 0 0 0 0 0 0 0 127 0" result="hardAlpha"/>
<feOffset dy="1"/>
<feGaussianBlur stdDeviation="1"/>
<feComposite in2="hardAlpha" operator="arithmetic" k2="-1" k3="1"/>
<feColorMatrix type="matrix" values="0 0 0 0 1 0 0 0 0 1 0 0 0 0 1 0 0 0 0.4 0"/>
<feBlend mode="normal" in2="shape" result="effect1_innerShadow_1841_16333"/>
</filter>
<linearGradient id="paint0_linear_1841_16333" x1="37.8044" y1="27.7869" x2="56.6145" y2="31.4588" gradientUnits="userSpaceOnUse">
<stop stop-color="#FF8C39"/>
<stop offset="1" stop-color="#EB00FF"/>
</linearGradient>
<linearGradient id="paint1_linear_1841_16333" x1="6.95521" y1="52.0983" x2="58.9966" y2="43.551" gradientUnits="userSpaceOnUse">
<stop stop-color="#FF8C39"/>
<stop offset="1" stop-color="#EB00FF"/>
</linearGradient>
<linearGradient id="paint2_linear_1841_16333" x1="12.8394" y1="36.0955" x2="41.8567" y2="21.7095" gradientUnits="userSpaceOnUse">
<stop stop-color="#FF8C39"/>
<stop offset="1" stop-color="#EB00FF"/>
</linearGradient>
<linearGradient id="paint3_linear_1841_16333" x1="16.3198" y1="18.5477" x2="30.578" y2="21.9588" gradientUnits="userSpaceOnUse">
<stop stop-color="#FF8C39"/>
<stop offset="1" stop-color="#EB00FF"/>
</linearGradient>
<linearGradient id="paint4_linear_1841_16333" x1="24.8328" y1="18.7063" x2="42.7041" y2="22.7269" gradientUnits="userSpaceOnUse">
<stop stop-color="#FF8C39"/>
<stop offset="1" stop-color="#EB00FF"/>
</linearGradient>
<linearGradient id="paint5_linear_1841_16333" x1="50.0962" y1="29.6998" x2="34.9056" y2="50.8036" gradientUnits="userSpaceOnUse">
<stop stop-color="#E3DBFF"/>
<stop offset="1" stop-color="#AB93FF"/>
</linearGradient>
<linearGradient id="paint6_linear_1841_16333" x1="39.7941" y1="25.535" x2="58.6042" y2="29.2068" gradientUnits="userSpaceOnUse">
<stop stop-color="#FF8C39"/>
<stop offset="1" stop-color="#EB00FF"/>
</linearGradient>
<linearGradient id="paint7_linear_1841_16333" x1="27.7955" y1="32.7479" x2="67.3948" y2="48.489" gradientUnits="userSpaceOnUse">
<stop stop-color="#FF8C39"/>
<stop offset="1" stop-color="#EB00FF"/>
</linearGradient>
<linearGradient id="paint8_linear_1841_16333" x1="16.7684" y1="25.9952" x2="33.5544" y2="30.4732" gradientUnits="userSpaceOnUse">
<stop stop-color="#FF8C39"/>
<stop offset="1" stop-color="#EB00FF"/>
</linearGradient>
<linearGradient id="paint9_linear_1841_16333" x1="19.6046" y1="18.7949" x2="40.0806" y2="21.2536" gradientUnits="userSpaceOnUse">
<stop stop-color="#FF8C39"/>
<stop offset="1" stop-color="#EB00FF"/>
</linearGradient>
<linearGradient id="paint10_linear_1841_16333" x1="27.1827" y1="16.8911" x2="44.4261" y2="21.1885" gradientUnits="userSpaceOnUse">
<stop stop-color="#FF8C39"/>
<stop offset="1" stop-color="#EB00FF"/>
</linearGradient>
<linearGradient id="paint11_linear_1841_16333" x1="52.6992" y1="28.4614" x2="16.4097" y2="60.088" gradientUnits="userSpaceOnUse">
<stop stop-color="#E3DBFF"/>
<stop offset="1" stop-color="#AB93FF"/>
</linearGradient>
<linearGradient id="paint12_linear_1841_16333" x1="17.1318" y1="-52.1899" x2="70.1972" y2="-46.1121" gradientUnits="userSpaceOnUse">
<stop stop-color="#D942C0"/>
<stop offset="1" stop-color="#6317C3"/>
</linearGradient>
</defs>
</svg>
