<svg width="80" height="80" viewBox="0 0 80 80" fill="none" xmlns="http://www.w3.org/2000/svg">
<rect width="80" height="80" rx="8" fill="#FCF5FC"/>
<g filter="url(#filter0_i_1841_16384)">
<path fillRule="evenodd" clip-rule="evenodd" d="M30.6402 25.6289H30.1189C23.9994 25.6289 19.0386 30.5898 19.0386 36.7093V44.3154C19.0386 53.5299 26.5084 60.9998 35.723 60.9998H44.5624C50.4211 60.9998 55.1704 56.2504 55.1704 50.3917V49.1171C55.1704 43.9624 50.981 39.7837 45.8263 39.7837C43.3596 39.7837 41.3082 37.8756 41.1358 35.4149C40.7496 29.903 36.1656 25.6289 30.6402 25.6289ZM30.5576 38.5083C32.4875 38.5083 34.0519 36.9595 34.0519 35.049C34.0519 33.1385 32.4875 31.5897 30.5576 31.5897C28.6278 31.5897 27.0634 33.1385 27.0634 35.049C27.0634 36.9595 28.6278 38.5083 30.5576 38.5083Z" fill="url(#paint0_linear_1841_16384)"/>
</g>
<g filter="url(#filter1_i_1841_16384)">
<ellipse cx="31.3634" cy="47.4568" rx="4.23552" ry="4.14139" fill="url(#paint1_linear_1841_16384)"/>
</g>
<g filter="url(#filter2_i_1841_16384)">
<ellipse cx="44.1642" cy="50.3172" rx="4.23552" ry="4.14139" fill="url(#paint2_linear_1841_16384)"/>
</g>
<g filter="url(#filter3_i_1841_16384)">
<path d="M40.1684 35.4112L42.4429 33.7619C43.5142 32.9851 44.9846 33.0713 45.9578 33.9679C46.9248 34.8588 47.1353 36.3055 46.4621 37.435L44.9801 39.9219C44.1911 41.2458 42.9474 42.2373 41.481 42.7114L38.5798 43.6493C37.754 43.9163 36.945 43.1985 37.1117 42.3468L37.7187 39.2467C38.0207 37.7043 38.8961 36.3337 40.1684 35.4112Z" fill="url(#paint3_linear_1841_16384)"/>
</g>
<g filter="url(#filter4_i_1841_16384)">
<path d="M56.8266 18.0492C57.5878 17.3079 58.7957 17.2912 59.5771 18.0111L60.8021 19.1397C61.5835 19.8596 61.6657 21.0648 60.9892 21.884L49.952 35.2507L44.4078 30.1429L56.8266 18.0492Z" fill="url(#paint4_linear_1841_16384)"/>
</g>
<g filter="url(#filter5_i_1841_16384)">
<path d="M44.4077 30.1436L49.952 35.2513L47.432 37.9866C47.0578 38.3928 46.4252 38.4187 46.019 38.0445L41.9457 34.2919C41.5395 33.9177 41.5135 33.285 41.8878 32.8789L44.4077 30.1436Z" fill="url(#paint5_linear_1841_16384)"/>
</g>
<defs>
<filter id="filter0_i_1841_16384" x="19.0386" y="25.6289" width="36.1318" height="37.3711" filterUnits="userSpaceOnUse" color-interpolation-filters="sRGB">
<feFlood flood-opacity="0" result="BackgroundImageFix"/>
<feBlend mode="normal" in="SourceGraphic" in2="BackgroundImageFix" result="shape"/>
<feColorMatrix in="SourceAlpha" type="matrix" values="0 0 0 0 0 0 0 0 0 0 0 0 0 0 0 0 0 0 127 0" result="hardAlpha"/>
<feOffset dy="2"/>
<feGaussianBlur stdDeviation="2"/>
<feComposite in2="hardAlpha" operator="arithmetic" k2="-1" k3="1"/>
<feColorMatrix type="matrix" values="0 0 0 0 1 0 0 0 0 1 0 0 0 0 1 0 0 0 0.4 0"/>
<feBlend mode="normal" in2="shape" result="effect1_innerShadow_1841_16384"/>
</filter>
<filter id="filter1_i_1841_16384" x="27.1279" y="43.3154" width="8.47119" height="9.2832" filterUnits="userSpaceOnUse" color-interpolation-filters="sRGB">
<feFlood flood-opacity="0" result="BackgroundImageFix"/>
<feBlend mode="normal" in="SourceGraphic" in2="BackgroundImageFix" result="shape"/>
<feColorMatrix in="SourceAlpha" type="matrix" values="0 0 0 0 0 0 0 0 0 0 0 0 0 0 0 0 0 0 127 0" result="hardAlpha"/>
<feOffset dy="1"/>
<feGaussianBlur stdDeviation="1"/>
<feComposite in2="hardAlpha" operator="arithmetic" k2="-1" k3="1"/>
<feColorMatrix type="matrix" values="0 0 0 0 1 0 0 0 0 1 0 0 0 0 1 0 0 0 0.4 0"/>
<feBlend mode="normal" in2="shape" result="effect1_innerShadow_1841_16384"/>
</filter>
<filter id="filter2_i_1841_16384" x="39.9287" y="46.1758" width="8.47119" height="9.2832" filterUnits="userSpaceOnUse" color-interpolation-filters="sRGB">
<feFlood flood-opacity="0" result="BackgroundImageFix"/>
<feBlend mode="normal" in="SourceGraphic" in2="BackgroundImageFix" result="shape"/>
<feColorMatrix in="SourceAlpha" type="matrix" values="0 0 0 0 0 0 0 0 0 0 0 0 0 0 0 0 0 0 127 0" result="hardAlpha"/>
<feOffset dy="1"/>
<feGaussianBlur stdDeviation="1"/>
<feComposite in2="hardAlpha" operator="arithmetic" k2="-1" k3="1"/>
<feColorMatrix type="matrix" values="0 0 0 0 1 0 0 0 0 1 0 0 0 0 1 0 0 0 0.4 0"/>
<feBlend mode="normal" in2="shape" result="effect1_innerShadow_1841_16384"/>
</filter>
<filter id="filter3_i_1841_16384" x="37.0898" y="33.2324" width="9.76416" height="12.4736" filterUnits="userSpaceOnUse" color-interpolation-filters="sRGB">
<feFlood flood-opacity="0" result="BackgroundImageFix"/>
<feBlend mode="normal" in="SourceGraphic" in2="BackgroundImageFix" result="shape"/>
<feColorMatrix in="SourceAlpha" type="matrix" values="0 0 0 0 0 0 0 0 0 0 0 0 0 0 0 0 0 0 127 0" result="hardAlpha"/>
<feOffset dy="2"/>
<feGaussianBlur stdDeviation="1.5"/>
<feComposite in2="hardAlpha" operator="arithmetic" k2="-1" k3="1"/>
<feColorMatrix type="matrix" values="0 0 0 0 1 0 0 0 0 1 0 0 0 0 1 0 0 0 0.4 0"/>
<feBlend mode="normal" in2="shape" result="effect1_innerShadow_1841_16384"/>
</filter>
<filter id="filter4_i_1841_16384" x="44.4077" y="17.4824" width="17.0396" height="19.7686" filterUnits="userSpaceOnUse" color-interpolation-filters="sRGB">
<feFlood flood-opacity="0" result="BackgroundImageFix"/>
<feBlend mode="normal" in="SourceGraphic" in2="BackgroundImageFix" result="shape"/>
<feColorMatrix in="SourceAlpha" type="matrix" values="0 0 0 0 0 0 0 0 0 0 0 0 0 0 0 0 0 0 127 0" result="hardAlpha"/>
<feOffset dy="2"/>
<feGaussianBlur stdDeviation="1.5"/>
<feComposite in2="hardAlpha" operator="arithmetic" k2="-1" k3="1"/>
<feColorMatrix type="matrix" values="0 0 0 0 1 0 0 0 0 1 0 0 0 0 1 0 0 0 0.4 0"/>
<feBlend mode="normal" in2="shape" result="effect1_innerShadow_1841_16384"/>
</filter>
<filter id="filter5_i_1841_16384" x="41.623" y="30.1436" width="8.3291" height="12.165" filterUnits="userSpaceOnUse" color-interpolation-filters="sRGB">
<feFlood flood-opacity="0" result="BackgroundImageFix"/>
<feBlend mode="normal" in="SourceGraphic" in2="BackgroundImageFix" result="shape"/>
<feColorMatrix in="SourceAlpha" type="matrix" values="0 0 0 0 0 0 0 0 0 0 0 0 0 0 0 0 0 0 127 0" result="hardAlpha"/>
<feOffset dy="4"/>
<feGaussianBlur stdDeviation="4"/>
<feComposite in2="hardAlpha" operator="arithmetic" k2="-1" k3="1"/>
<feColorMatrix type="matrix" values="0 0 0 0 1 0 0 0 0 1 0 0 0 0 1 0 0 0 0.4 0"/>
<feBlend mode="normal" in2="shape" result="effect1_innerShadow_1841_16384"/>
</filter>
<linearGradient id="paint0_linear_1841_16384" x1="49.9411" y1="61" x2="54.2983" y2="12.5441" gradientUnits="userSpaceOnUse">
<stop stop-color="#E3DBFF"/>
<stop offset="1" stop-color="#AB93FF"/>
</linearGradient>
<linearGradient id="paint1_linear_1841_16384" x1="29.7061" y1="43.6326" x2="35.1478" y2="56.5045" gradientUnits="userSpaceOnUse">
<stop stop-color="#FF8C39"/>
<stop offset="1" stop-color="#EB00FF"/>
</linearGradient>
<linearGradient id="paint2_linear_1841_16384" x1="38.4416" y1="34.1496" x2="61.2811" y2="40.2739" gradientUnits="userSpaceOnUse">
<stop stop-color="#D942C0"/>
<stop offset="1" stop-color="#6317C3"/>
</linearGradient>
<linearGradient id="paint3_linear_1841_16384" x1="35.6276" y1="34.9695" x2="55.0104" y2="31.0245" gradientUnits="userSpaceOnUse">
<stop stop-color="#FF8C39"/>
<stop offset="1" stop-color="#EB00FF"/>
</linearGradient>
<linearGradient id="paint4_linear_1841_16384" x1="70.766" y1="12.6581" x2="75.8121" y2="22.1351" gradientUnits="userSpaceOnUse">
<stop stop-color="#D942C0"/>
<stop offset="1" stop-color="#6317C3"/>
</linearGradient>
<linearGradient id="paint5_linear_1841_16384" x1="53.3051" y1="28.8932" x2="39.9638" y2="28.2529" gradientUnits="userSpaceOnUse">
<stop stop-color="#E3DBFF"/>
<stop offset="1" stop-color="#AB93FF"/>
</linearGradient>
</defs>
</svg>
