<svg width="80" height="80" viewBox="0 0 80 80" fill="none" xmlns="http://www.w3.org/2000/svg">
<rect width="80" height="80" rx="8" fill="#FCF5FC"/>
<g filter="url(#filter0_i_1841_16362)">
<circle cx="31.2094" cy="26.1098" r="5.46527" fill="url(#paint0_linear_1841_16362)"/>
</g>
<g filter="url(#filter1_i_1841_16362)">
<path d="M21.379 38.2407C23.1953 34.8121 26.7576 32.668 30.6375 32.668H31.7792C35.6592 32.668 39.2215 34.8121 41.0377 38.2407C41.5373 39.1837 40.8537 40.3193 39.7866 40.3193H22.6302C21.563 40.3193 20.8795 39.1837 21.379 38.2407Z" fill="url(#paint1_linear_1841_16362)"/>
</g>
<g filter="url(#filter2_i_1841_16362)">
<circle cx="50.7924" cy="45.7846" r="5.46527" fill="url(#paint2_linear_1841_16362)"/>
</g>
<g filter="url(#filter3_i_1841_16362)">
<path d="M40.964 57.9155C42.7803 54.4869 46.3425 52.3428 50.2225 52.3428H51.3642C55.2441 52.3428 58.8064 54.4869 60.6227 57.9155C61.1222 58.8585 60.4387 59.9942 59.3716 59.9942H42.2151C41.148 59.9942 40.4644 58.8585 40.964 57.9155Z" fill="url(#paint3_linear_1841_16362)"/>
</g>
<path d="M56.087 39.0537C55.9705 39.0109 55.8632 38.9476 55.7733 38.8685C55.6835 38.7895 55.6134 38.6968 55.5685 38.5975C54.882 37.0804 54.1812 35.8468 52.9907 34.7551C51.9797 33.83 50.6106 33.0162 48.7411 32.2363C48.4577 32.1181 48.1348 32.263 48.0289 32.5512L47.1062 35.0629C47.062 35.1816 46.9751 35.2816 46.856 35.3504C46.737 35.4192 46.591 35.4539 46.4362 35.4502C46.2814 35.4464 46.1244 35.4045 45.9847 35.3294C45.845 35.2544 45.7286 35.1496 45.6499 35.0279L39.5623 25.5315C39.5082 25.4471 39.4737 25.3568 39.4607 25.2661C39.4478 25.1754 39.4567 25.0862 39.4869 25.0038C39.5172 24.9215 39.5682 24.8477 39.6367 24.787C39.7053 24.7262 39.7901 24.6798 39.886 24.6505L50.6736 21.3538C50.8124 21.312 50.9689 21.3075 51.124 21.3407C51.2791 21.374 51.4259 21.4436 51.5463 21.541C51.6667 21.6384 51.7555 21.7593 51.8016 21.8888C51.8478 22.0184 51.8494 22.1508 51.8062 22.2699L50.8638 24.835C50.7624 25.111 50.8985 25.4173 51.1678 25.5356C54.3984 26.9561 56.4975 28.9052 57.416 31.3414C58.2144 33.4587 58.1004 35.9431 57.0779 38.7264C57.0185 38.8879 56.8808 39.0132 56.6949 39.0746C56.5091 39.136 56.2904 39.1285 56.087 39.0537Z" fill="url(#paint4_linear_1841_16362)"/>
<path d="M22.914 41.6943C23.0305 41.7371 23.1378 41.8004 23.2276 41.8795C23.3175 41.9586 23.3875 42.0513 23.4325 42.1506C24.119 43.6676 24.8198 44.9013 26.0103 45.9929C27.0213 46.918 28.3904 47.7319 30.2599 48.5118C30.5432 48.6299 30.8662 48.485 30.972 48.1969L31.8948 45.6852C31.939 45.5664 32.0259 45.4665 32.145 45.3977C32.264 45.3288 32.4099 45.2942 32.5648 45.2979C32.7196 45.3016 32.8765 45.3436 33.0163 45.4186C33.156 45.4937 33.2724 45.5985 33.3511 45.7202L39.4386 55.2165C39.4927 55.301 39.5273 55.3913 39.5403 55.482C39.5532 55.5727 39.5443 55.6619 39.514 55.7442C39.4838 55.8266 39.4328 55.9003 39.3642 55.9611C39.2956 56.0218 39.2108 56.0683 39.115 56.0976L28.3274 59.3942C28.1886 59.436 28.0321 59.4406 27.877 59.4073C27.7219 59.3741 27.5751 59.3044 27.4547 59.207C27.3343 59.1096 27.2455 58.9887 27.1993 58.8592C27.1532 58.7297 27.1516 58.5972 27.1948 58.4781L28.1372 55.9131C28.2386 55.6371 28.1024 55.3308 27.8332 55.2124C24.6026 53.792 22.5034 51.8428 21.585 49.4067C20.7866 47.2893 20.9006 44.8049 21.9231 42.0217C21.9825 41.8601 22.1202 41.7349 22.306 41.6735C22.4919 41.6121 22.7105 41.6196 22.914 41.6943Z" fill="url(#paint5_linear_1841_16362)"/>
<defs>
<filter id="filter0_i_1841_16362" x="25.7441" y="20.6445" width="10.9307" height="13.1168" filterUnits="userSpaceOnUse" color-interpolation-filters="sRGB">
<feFlood flood-opacity="0" result="BackgroundImageFix"/>
<feBlend mode="normal" in="SourceGraphic" in2="BackgroundImageFix" result="shape"/>
<feColorMatrix in="SourceAlpha" type="matrix" values="0 0 0 0 0 0 0 0 0 0 0 0 0 0 0 0 0 0 127 0" result="hardAlpha"/>
<feOffset dy="2.18611"/>
<feGaussianBlur stdDeviation="2.18611"/>
<feComposite in2="hardAlpha" operator="arithmetic" k2="-1" k3="1"/>
<feColorMatrix type="matrix" values="0 0 0 0 1 0 0 0 0 1 0 0 0 0 1 0 0 0 0.4 0"/>
<feBlend mode="normal" in2="shape" result="effect1_innerShadow_1841_16362"/>
</filter>
<filter id="filter1_i_1841_16362" x="21.2124" y="32.668" width="19.9922" height="9.83748" filterUnits="userSpaceOnUse" color-interpolation-filters="sRGB">
<feFlood flood-opacity="0" result="BackgroundImageFix"/>
<feBlend mode="normal" in="SourceGraphic" in2="BackgroundImageFix" result="shape"/>
<feColorMatrix in="SourceAlpha" type="matrix" values="0 0 0 0 0 0 0 0 0 0 0 0 0 0 0 0 0 0 127 0" result="hardAlpha"/>
<feOffset dy="2.18611"/>
<feGaussianBlur stdDeviation="2.18611"/>
<feComposite in2="hardAlpha" operator="arithmetic" k2="-1" k3="1"/>
<feColorMatrix type="matrix" values="0 0 0 0 1 0 0 0 0 1 0 0 0 0 1 0 0 0 0.4 0"/>
<feBlend mode="normal" in2="shape" result="effect1_innerShadow_1841_16362"/>
</filter>
<filter id="filter2_i_1841_16362" x="45.3271" y="40.3193" width="10.9307" height="13.1168" filterUnits="userSpaceOnUse" color-interpolation-filters="sRGB">
<feFlood flood-opacity="0" result="BackgroundImageFix"/>
<feBlend mode="normal" in="SourceGraphic" in2="BackgroundImageFix" result="shape"/>
<feColorMatrix in="SourceAlpha" type="matrix" values="0 0 0 0 0 0 0 0 0 0 0 0 0 0 0 0 0 0 127 0" result="hardAlpha"/>
<feOffset dy="2.18611"/>
<feGaussianBlur stdDeviation="2.18611"/>
<feComposite in2="hardAlpha" operator="arithmetic" k2="-1" k3="1"/>
<feColorMatrix type="matrix" values="0 0 0 0 1 0 0 0 0 1 0 0 0 0 1 0 0 0 0.4 0"/>
<feBlend mode="normal" in2="shape" result="effect1_innerShadow_1841_16362"/>
</filter>
<filter id="filter3_i_1841_16362" x="40.7974" y="52.3428" width="19.9922" height="9.83748" filterUnits="userSpaceOnUse" color-interpolation-filters="sRGB">
<feFlood flood-opacity="0" result="BackgroundImageFix"/>
<feBlend mode="normal" in="SourceGraphic" in2="BackgroundImageFix" result="shape"/>
<feColorMatrix in="SourceAlpha" type="matrix" values="0 0 0 0 0 0 0 0 0 0 0 0 0 0 0 0 0 0 127 0" result="hardAlpha"/>
<feOffset dy="2.18611"/>
<feGaussianBlur stdDeviation="2.18611"/>
<feComposite in2="hardAlpha" operator="arithmetic" k2="-1" k3="1"/>
<feColorMatrix type="matrix" values="0 0 0 0 1 0 0 0 0 1 0 0 0 0 1 0 0 0 0.4 0"/>
<feBlend mode="normal" in2="shape" result="effect1_innerShadow_1841_16362"/>
</filter>
<linearGradient id="paint0_linear_1841_16362" x1="23.8252" y1="4.77393" x2="41.6891" y2="7.76828" gradientUnits="userSpaceOnUse">
<stop stop-color="#D942C0"/>
<stop offset="1" stop-color="#6317C3"/>
</linearGradient>
<linearGradient id="paint1_linear_1841_16362" x1="16.44" y1="21.5585" x2="46.3186" y2="35.8679" gradientUnits="userSpaceOnUse">
<stop stop-color="#D942C0"/>
<stop offset="1" stop-color="#6317C3"/>
</linearGradient>
<linearGradient id="paint2_linear_1841_16362" x1="43.4082" y1="24.4487" x2="61.2721" y2="27.4431" gradientUnits="userSpaceOnUse">
<stop stop-color="#D942C0"/>
<stop offset="1" stop-color="#6317C3"/>
</linearGradient>
<linearGradient id="paint3_linear_1841_16362" x1="36.0249" y1="41.2334" x2="65.9035" y2="55.5427" gradientUnits="userSpaceOnUse">
<stop stop-color="#D942C0"/>
<stop offset="1" stop-color="#6317C3"/>
</linearGradient>
<linearGradient id="paint4_linear_1841_16362" x1="47.9319" y1="20.7661" x2="46.437" y2="46.8829" gradientUnits="userSpaceOnUse">
<stop stop-color="#FF8C39"/>
<stop offset="1" stop-color="#EB00FF"/>
</linearGradient>
<linearGradient id="paint5_linear_1841_16362" x1="31.069" y1="59.982" x2="32.564" y2="33.8651" gradientUnits="userSpaceOnUse">
<stop stop-color="#FF8C39"/>
<stop offset="1" stop-color="#EB00FF"/>
</linearGradient>
</defs>
</svg>
