<svg width="38" height="34" viewBox="0 0 38 34" fill="none" xmlns="http://www.w3.org/2000/svg">
<path d="M1.90942 15.4766V31.0004C1.90942 32.1049 2.80485 33.0004 3.90942 33.0004H34.2137C35.3183 33.0004 36.2137 32.1049 36.2137 31.0004V15.4766" stroke="black" stroke-width="2" stroke-linecap="round"/>
<path d="M13.3721 4.80952V3C13.3721 1.89543 14.2675 1 15.3721 1H23.2466C24.3512 1 25.2466 1.89543 25.2466 3V4.80952" stroke="black" stroke-width="2" stroke-linecap="round"/>
<path d="M9.90854 19C5.70203 17.8119 3.01869 15.9562 1.87941 15.0438C1.46263 14.71 1.25 14.1996 1.25 13.6656V7.5C1.25 6.39543 2.14543 5.5 3.25 5.5H34.75C35.8546 5.5 36.75 6.39543 36.75 7.5V13.9227C36.75 14.2999 36.643 14.67 36.3909 14.9505C35.6464 15.7792 33.637 17.5711 29.3902 18.7817M13.8049 19.6783C15.365 19.8582 17.7012 20 19.4329 20C21.1646 20 23.282 19.8811 24.8917 19.6783" stroke="black" stroke-width="2"/>
<path d="M13.3719 21.595V18.7317C13.3719 17.7753 12.5966 17 11.6402 17C10.6838 17 9.90845 17.7753 9.90845 18.7317V21.595C9.90845 21.8614 9.9699 22.1242 10.088 22.363C10.7238 23.648 12.5565 23.648 13.1923 22.363C13.3104 22.1242 13.3719 21.8614 13.3719 21.595Z" stroke="black" stroke-width="2"/>
<path d="M28.9573 21.595V18.7317C28.9573 17.7753 28.182 17 27.2256 17C26.2692 17 25.4939 17.7753 25.4939 18.7317V21.595C25.4939 21.8614 25.5554 22.1242 25.6735 22.363C26.3093 23.648 28.1419 23.648 28.7777 22.363C28.8959 22.1242 28.9573 21.8614 28.9573 21.595Z" stroke="black" stroke-width="2"/>
</svg>
