<svg width="39" height="33" viewBox="0 0 39 33" fill="none" xmlns="http://www.w3.org/2000/svg">
<path d="M18.5393 32H2.38648C1.83419 32 1.38647 31.5523 1.38647 31V4.08848C1.38647 2.39747 2.78336 1.04061 4.47365 1.08975L20.0833 1.54355C21.7055 1.59071 22.9961 2.91938 22.9961 4.54228V17.012" stroke="black" stroke-width="2"/>
<path d="M19.0845 19.7912C19.0845 18.7647 19.8616 17.9049 20.8829 17.8014L35.4121 16.3295C36.5903 16.2101 37.6136 17.135 37.6136 18.3193V32H19.0845L19.0845 19.7912Z" stroke="black" stroke-width="2"/>
<rect x="16.8821" y="12.7227" width="2.76271" height="1.72242" rx="0.86121" fill="#0A0A0A"/>
<rect x="16.8821" y="7" width="2.76271" height="1.72242" rx="0.86121" fill="#0A0A0A"/>
<rect x="31.6343" y="21.96" width="2.76271" height="1.72242" rx="0.86121" fill="#0A0A0A"/>
<rect x="31.6343" y="27.0449" width="2.76271" height="1.72242" rx="0.86121" fill="#0A0A0A"/>
<rect x="11.418" y="12.7227" width="2.76271" height="1.72242" rx="0.86121" fill="#0A0A0A"/>
<rect x="11.418" y="18.4453" width="2.76271" height="1.72242" rx="0.86121" fill="#0A0A0A"/>
<rect x="11.418" y="24.168" width="2.76271" height="1.72242" rx="0.86121" fill="#0A0A0A"/>
<rect x="11.418" y="7" width="2.76271" height="1.72242" rx="0.86121" fill="#0A0A0A"/>
<rect x="27.0347" y="21.96" width="2.76271" height="1.72242" rx="0.86121" fill="#0A0A0A"/>
<rect x="27.0347" y="27.0449" width="2.76271" height="1.72242" rx="0.86121" fill="#0A0A0A"/>
<rect x="5.95361" y="12.7227" width="2.76271" height="1.72242" rx="0.86121" fill="#0A0A0A"/>
<rect x="5.95361" y="18.4453" width="2.76271" height="1.72242" rx="0.86121" fill="#0A0A0A"/>
<rect x="5.95361" y="24.168" width="2.76271" height="1.72242" rx="0.86121" fill="#0A0A0A"/>
<rect x="5.95361" y="7" width="2.76271" height="1.72242" rx="0.86121" fill="#0A0A0A"/>
<rect x="22.4353" y="21.96" width="2.76271" height="1.72242" rx="0.86121" fill="#0A0A0A"/>
<rect x="22.4353" y="27.0449" width="2.76271" height="1.72242" rx="0.86121" fill="#0A0A0A"/>
</svg>
