<svg width="50" height="34" viewBox="0 0 50 34" fill="none" xmlns="http://www.w3.org/2000/svg">
<path d="M46.6501 11.8271V18.7837" stroke="black" stroke-width="2" stroke-linecap="round"/>
<ellipse cx="46.6503" cy="22.9577" rx="1.20279" ry="1.3913" fill="black"/>
<path d="M45.7657 26.6346C45.8154 26.4045 46.0189 26.2402 46.2544 26.2402H47.046C47.2815 26.2402 47.485 26.4045 47.5348 26.6346L48.3053 30.1998C48.3726 30.5113 48.1353 30.8055 47.8166 30.8055H46.6502H45.4474C45.1475 30.8055 44.9241 30.5286 44.9874 30.2354L45.7657 26.6346Z" fill="black" stroke="black" stroke-linejoin="round"/>
<path d="M1.75675 9.218L25.1709 1.05814C25.2789 1.02052 25.3965 1.02102 25.5041 1.05957L48.2856 9.2195C48.7338 9.38002 48.7253 10.0168 48.273 10.1653L25.4916 17.6451C25.3916 17.678 25.2838 17.6784 25.1835 17.6464L1.76914 10.1664C1.31167 10.0203 1.30326 9.37605 1.75675 9.218Z" stroke="black" stroke-width="2"/>
<path d="M7.55957 12.1309V28.2276C7.55957 29.4784 8.73091 30.3929 9.96181 30.1706C15.5796 29.1557 19.0934 29.9573 24.2073 32.5855C24.711 32.8444 25.305 32.8786 25.8339 32.6759C31.3458 30.5631 34.9343 29.8729 40.2177 30.4033C41.3916 30.5211 42.4405 29.6228 42.4405 28.443V12.1309" stroke="black" stroke-width="2"/>
</svg>
