<svg width="152" height="141" viewBox="0 0 152 141" fill="none" xmlns="http://www.w3.org/2000/svg">
<path d="M69.7928 111L105.755 100.358M55.3123 6.69625L57.6312 13.7664M110.4 10.8401L106.599 17.4488M145.444 49.8313L137.748 52.1087M14.6175 88.5463L6.92186 90.8236M19.5301 43.2147L12.4498 39.8262M57.1708 103.38C50.1688 100.028 44.4391 94.8134 40.7062 88.3954C36.9732 81.9774 35.4047 74.6444 36.1988 67.3235C36.9929 60.0026 40.1141 53.0227 45.1677 47.2662C50.2213 41.5098 56.9804 37.2353 64.5902 34.9834C72.2001 32.7314 80.319 32.6031 87.9204 34.6146C95.5219 36.6261 102.264 40.6871 107.296 46.2841C112.327 51.8811 115.42 58.7628 116.186 66.0591C116.951 73.3553 115.353 80.7384 111.595 87.2748L108.646 92.3901C106.961 95.319 105.912 98.515 105.556 101.796C105.201 105.076 105.548 108.377 106.575 111.509L107.807 115.264C109.037 119.014 108.595 123.09 106.578 126.596C104.562 130.102 101.135 132.751 97.0534 133.959C92.9714 135.167 88.5679 134.835 84.8117 133.038C81.0555 131.24 78.2542 128.123 77.0242 124.373L75.7928 120.619C73.7174 114.291 68.9857 109.029 62.6565 106L57.1708 103.38Z" stroke="url(#paint0_linear_4247_20597)" stroke-width="12" stroke-linecap="round" stroke-linejoin="round"/>
<defs>
<linearGradient id="paint0_linear_4247_20597" x1="29.27" y1="-191.155" x2="-165.623" y2="19.3218" gradientUnits="userSpaceOnUse">
<stop stop-color="#E3DBFF"/>
<stop offset="1" stop-color="#AB93FF"/>
</linearGradient>
</defs>
</svg>
